<svg xmlns="http://www.w3.org/2000/svg" viewBox="0 0 122.88 122.88"><path d="M17.89 0h88.9c8.85 0 16.1 7.24 16.1 16.1v90.68c0 8.85-7.24 16.1-16.1 16.1H16.1c-8.85 0-16.1-7.24-16.1-16.1v-88.9C0 8.05 8.05 0 17.89 0zm49.15 30.55h18.84v33c0 6.93-.61 12.21-1.84 15.83-1.23 3.61-3.71 6.68-7.43 9.19-3.72 2.5-8.49 3.76-14.28 3.76-6.14 0-10.89-.83-14.26-2.49-3.38-1.65-5.98-4.07-7.82-7.27-1.84-3.18-2.93-7.13-3.25-11.82l17.91-2.43c.03 2.66.27 4.64.71 5.93.44 1.3 1.19 2.33 2.25 3.14.72.52 1.74.78 3.07.78 2.11 0 3.65-.78 4.64-2.33.98-1.56 1.47-4.19 1.47-7.88V30.55h-.01z" fill-rule="evenodd" clip-rule="evenodd"/></svg>